<?xml version="1.0" standalone="no"?>
<!DOCTYPE svg PUBLIC "-//W3C//DTD SVG 20010904//EN"
 "http://www.w3.org/TR/2001/REC-SVG-20010904/DTD/svg10.dtd">
<svg version="1.0" xmlns="http://www.w3.org/2000/svg"
 width="4500.000000pt" height="4500.000000pt" viewBox="0 0 4500.000000 4500.000000"
 preserveAspectRatio="xMidYMid meet">

<g transform="translate(0.000000,4500.000000) scale(0.100000,-0.100000)"
fill="#000000" stroke="none">
<path d="M6613 26776 l-28 -24 0 -779 c0 -856 1 -868 61 -1053 60 -185 160
-331 298 -436 93 -71 162 -107 287 -148 203 -68 176 -67 1626 -64 1234 3 1303
4 1320 21 16 15 18 40 21 187 l3 170 -30 30 -29 30 -784 0 c-522 0 -804 4
-844 11 -112 20 -200 83 -248 176 -51 100 -50 88 -56 1001 l-5 854 -28 24 -28
24 -754 0 -754 0 -28 -24z"/>
<path d="M12735 26780 c-27 -13 -435 -416 -1233 -1219 -1267 -1275 -1220
-1223 -1172 -1271 20 -20 33 -20 1284 -20 l1265 0 28 24 28 24 0 171 c0 164
-1 171 -23 193 l-23 23 -865 5 -865 5 564 557 564 557 729 -756 c453 -469 744
-763 769 -776 40 -22 41 -22 887 -25 l848 -2 21 21 c28 28 20 68 -23 119 -18
21 -546 558 -1173 1194 -789 800 -1153 1163 -1181 1176 -35 18 -61 20 -215 20
-154 0 -179 -2 -214 -20z"/>
<path d="M16425 26789 c-258 -38 -479 -146 -655 -319 -185 -183 -290 -387
-347 -675 -26 -135 -24 -406 5 -542 59 -273 163 -469 346 -648 187 -183 402
-287 671 -324 51 -7 522 -11 1421 -11 l1345 0 24 25 c25 24 25 27 25 189 0 90
-3 172 -6 180 -16 41 -16 41 -969 46 l-920 5 -56 23 c-156 63 -229 210 -249
507 -19 281 -8 721 21 842 30 123 100 212 197 250 44 17 110 18 985 23 l939 5
24 28 c23 27 24 33 24 191 0 146 -2 166 -19 187 l-19 24 -1364 1 c-749 1
-1390 -2 -1423 -7z"/>
<path d="M24845 25546 c-22 -7 -51 -19 -65 -26 -14 -7 -899 -749 -1968 -1649
-1069 -900 -1960 -1646 -1980 -1659 -20 -12 -53 -27 -72 -32 -23 -6 -2938 -17
-7980 -30 -4412 -11 -7958 -24 -7975 -29 -90 -25 -166 -100 -585 -571 -47 -52
-231 -255 -409 -450 -213 -233 -331 -370 -345 -400 -14 -31 -21 -66 -21 -115
0 -88 36 -168 99 -220 75 -61 98 -65 397 -65 148 0 269 -2 269 -5 0 -3 -159
-179 -352 -391 -194 -212 -366 -409 -383 -437 -27 -46 -30 -61 -30 -132 0 -67
5 -88 27 -130 33 -62 80 -108 138 -134 45 -20 59 -21 1350 -21 1220 0 14482
27 15625 33 517 2 520 2 565 24 25 13 952 764 2060 1669 1108 905 2033 1655
2055 1667 l40 22 7445 5 7445 5 55 27 c49 24 125 104 650 679 327 358 609 674
625 702 27 46 30 61 30 132 0 67 -5 88 -27 130 -33 64 -80 108 -143 137 -47
21 -66 23 -322 28 l-272 5 361 395 c232 254 368 410 380 438 59 133 10 289
-117 367 l-48 30 -331 6 c-182 4 -3890 7 -8241 7 -6330 1 -7918 -2 -7950 -12z"/>
<path d="M26840 21565 c-158 -32 -264 -87 -365 -189 -77 -78 -122 -159 -150
-266 -26 -101 -17 -311 17 -407 47 -132 136 -234 285 -325 38 -24 473 -232
966 -463 l896 -420 -1052 -5 c-579 -3 -1059 -9 -1069 -13 -33 -17 -40 -59 -36
-225 3 -139 5 -164 21 -179 17 -17 92 -18 1530 -18 l1512 0 79 23 c337 97 513
367 467 714 -27 204 -107 328 -288 447 -40 27 -477 238 -975 472 l-902 424
1018 5 1018 5 24 28 c23 27 24 33 24 193 0 162 0 165 -25 189 l-24 25 -1453
-1 c-1157 -1 -1466 -4 -1518 -14z"/>
<path d="M31205 21569 c-257 -38 -477 -145 -655 -319 -185 -182 -290 -386
-347 -675 -26 -135 -24 -406 5 -542 59 -273 163 -469 346 -648 187 -183 402
-287 671 -324 51 -7 531 -11 1451 -11 l1376 0 29 29 29 29 0 161 c0 155 -1
161 -24 188 l-24 28 -959 5 -958 5 -56 23 c-160 64 -229 209 -250 527 -13 183
-6 667 11 764 24 138 66 218 146 273 84 59 72 58 1086 58 1011 0 987 -1 1008
55 6 15 10 94 10 176 l0 151 -29 29 -29 29 -1389 -1 c-763 -1 -1415 -5 -1448
-10z"/>
<path d="M34413 21556 l-28 -24 0 -1217 0 -1217 28 -24 28 -24 679 0 679 0 28
24 28 24 3 1022 2 1021 463 -3 c462 -3 462 -3 522 -27 41 -17 78 -42 116 -80
75 -75 101 -143 101 -266 0 -107 -10 -152 -54 -224 -39 -63 -90 -102 -173
-133 -56 -21 -79 -22 -380 -26 -185 -2 -327 -8 -338 -14 -36 -19 -47 -70 -46
-205 0 -142 12 -191 49 -210 32 -16 1480 -19 1610 -3 407 50 687 264 770 589
33 127 30 322 -7 456 -75 277 -277 471 -578 557 l-80 23 -1697 3 -1696 2 -29
-24z"/>
<path d="M32143 20635 c-46 -20 -55 -62 -51 -233 3 -143 3 -144 31 -168 l28
-24 933 0 c929 0 933 0 960 21 l26 20 0 170 c0 94 -4 179 -10 189 -5 10 -24
23 -41 29 -23 8 -301 11 -938 11 -750 -1 -911 -3 -938 -15z"/>
<path d="M7357 17460 l-56 -90 44 0 c41 0 47 4 119 82 42 45 76 85 76 90 0 4
-29 8 -63 8 l-64 0 -56 -90z"/>
<path d="M12937 17483 c-76 -118 -75 -113 -24 -113 41 0 46 3 120 84 42 47 77
87 77 90 0 3 -29 6 -65 6 l-65 0 -43 -67z"/>
<path d="M32520 17465 c-33 -47 -60 -87 -60 -90 0 -3 22 -5 49 -5 49 0 50 1
89 56 l40 56 38 -56 c39 -56 39 -56 92 -56 l53 0 -47 68 c-77 109 -80 112
-140 112 l-53 0 -61 -85z"/>
<path d="M39423 17498 c-61 -83 -83 -116 -83 -122 0 -3 22 -6 48 -6 48 0 49 1
87 55 20 30 39 55 40 55 1 0 20 -25 40 -55 38 -54 39 -55 87 -55 26 0 48 3 48
8 0 4 -27 43 -58 87 l-58 80 -56 3 -57 3 -38 -53z"/>
<path d="M16905 17527 c-72 -24 -120 -54 -168 -106 -88 -94 -134 -238 -124
-387 14 -210 85 -337 225 -406 63 -31 72 -33 177 -33 98 0 116 3 167 27 112
52 199 166 214 281 l7 48 -58 -3 -57 -3 -22 -61 c-30 -81 -58 -118 -114 -151
-41 -24 -58 -28 -127 -28 -63 0 -90 5 -128 24 -93 45 -146 144 -154 293 -10
151 27 271 103 338 57 50 99 64 189 64 119 0 181 -38 225 -137 l21 -48 57 3
c54 3 57 4 54 28 -5 45 -62 148 -99 181 -68 59 -136 83 -248 86 -63 2 -115 -2
-140 -10z"/>
<path d="M23563 17522 c-114 -41 -173 -118 -181 -236 -4 -59 -1 -79 16 -112
41 -81 76 -99 288 -149 80 -19 163 -44 184 -55 66 -34 88 -105 53 -177 -31
-67 -170 -107 -285 -84 -98 21 -151 72 -166 163 l-7 43 -58 3 -57 3 0 -39 c0
-68 29 -133 85 -189 73 -72 156 -98 294 -91 216 12 331 108 331 277 -1 97 -49
170 -140 210 -25 11 -88 29 -140 41 -243 55 -280 76 -280 158 0 114 112 174
265 142 73 -15 127 -63 144 -128 l12 -42 59 0 60 0 -6 33 c-21 117 -59 169
-156 212 -84 38 -234 46 -315 17z"/>
<path d="M2980 17080 l0 -450 290 0 290 0 0 55 0 55 -225 0 -225 0 0 395 0
395 -65 0 -65 0 0 -450z"/>
<path d="M4330 17080 l0 -450 50 0 50 0 0 37 0 37 33 -32 c68 -66 179 -82 272
-38 59 27 98 70 134 146 35 75 42 240 15 327 -23 72 -98 152 -160 171 -91 27
-202 6 -261 -50 l-23 -21 0 161 0 162 -55 0 -55 0 0 -450z m371 87 c19 -12 45
-44 59 -72 22 -43 25 -63 25 -146 -1 -83 -4 -103 -26 -145 -33 -65 -77 -94
-141 -94 -121 0 -179 74 -182 234 -2 124 23 181 99 227 43 27 123 25 166 -4z"/>
<path d="M8260 17470 l0 -60 55 0 55 0 0 60 0 60 -55 0 -55 0 0 -60z"/>
<path d="M9980 17368 l0 -162 -27 27 c-39 37 -94 57 -155 57 -78 0 -125 -17
-174 -62 -148 -137 -148 -437 0 -564 39 -33 116 -64 161 -64 51 0 131 33 167
70 l38 38 0 -39 0 -39 50 0 50 0 0 450 0 450 -55 0 -55 0 0 -162z m-93 -195
c72 -34 112 -152 94 -279 -20 -137 -91 -205 -197 -189 -55 8 -106 50 -128 107
-37 92 -29 238 17 305 46 67 139 92 214 56z"/>
<path d="M11462 17478 c-240 -639 -312 -833 -312 -840 0 -5 28 -8 61 -6 l62 3
47 130 46 130 176 3 176 2 27 -82 c15 -46 36 -107 47 -135 l19 -53 65 0 c35 0
64 4 64 8 0 4 -71 205 -159 447 l-158 440 -71 3 -70 3 -20 -53z m157 -302 l60
-176 -135 0 c-73 0 -134 3 -134 8 0 4 29 88 65 187 36 98 65 181 65 184 1 18
26 -47 79 -203z"/>
<path d="M13410 17080 l0 -450 55 0 55 0 0 450 0 450 -55 0 -55 0 0 -450z"/>
<path d="M13690 17470 l0 -60 55 0 55 0 0 60 0 60 -55 0 -55 0 0 -60z"/>
<path d="M20350 17080 l0 -450 55 0 55 0 0 450 0 450 -55 0 -55 0 0 -450z"/>
<path d="M22070 17368 l0 -162 -27 27 c-39 37 -94 57 -155 57 -78 0 -125 -17
-174 -62 -148 -137 -148 -437 0 -564 39 -33 116 -64 161 -64 51 0 131 33 167
70 l38 38 0 -39 0 -39 50 0 50 0 0 450 0 450 -55 0 -55 0 0 -162z m-93 -195
c72 -34 112 -152 94 -279 -20 -137 -91 -205 -197 -189 -55 8 -106 50 -128 107
-37 92 -29 238 17 305 46 67 139 92 214 56z"/>
<path d="M24200 17470 l0 -60 55 0 55 0 0 60 0 60 -55 0 -55 0 0 -60z"/>
<path d="M29850 17080 l0 -450 335 0 335 0 0 55 0 55 -270 0 -270 0 0 155 0
155 245 0 245 0 0 50 0 50 -245 0 -245 0 0 135 0 135 265 0 265 0 0 55 0 55
-330 0 -330 0 0 -450z"/>
<path d="M30650 17080 l0 -450 55 0 55 0 0 450 0 450 -55 0 -55 0 0 -450z"/>
<path d="M33740 17470 l0 -60 55 0 55 0 0 60 0 60 -55 0 -55 0 0 -60z"/>
<path d="M36090 17368 l0 -162 -27 27 c-39 37 -94 57 -155 57 -78 0 -125 -17
-174 -62 -148 -137 -148 -437 0 -564 39 -33 116 -64 161 -64 51 0 131 33 167
70 l38 38 0 -39 0 -39 50 0 50 0 0 450 0 450 -55 0 -55 0 0 -162z m-93 -195
c72 -34 112 -152 94 -279 -20 -137 -91 -205 -197 -189 -55 8 -106 50 -128 107
-37 92 -29 238 17 305 46 67 139 92 214 56z"/>
<path d="M37400 17085 l0 -445 65 0 65 0 0 189 0 189 188 4 c182 3 188 4 232
30 80 47 120 125 120 232 0 76 -33 152 -82 189 -67 52 -101 57 -354 57 l-234
0 0 -445z m476 323 c47 -26 67 -64 68 -128 0 -70 -22 -112 -71 -136 -31 -15
-66 -19 -190 -22 l-153 -4 0 157 0 157 158 -4 c124 -2 164 -7 188 -20z"/>
<path d="M41230 17470 l0 -60 55 0 55 0 0 60 0 60 -55 0 -55 0 0 -60z"/>
<path d="M6840 17370 l0 -90 -45 0 -45 0 0 -50 0 -50 45 0 45 0 0 -237 c0
-207 2 -243 18 -273 22 -44 53 -60 119 -60 75 0 83 5 83 56 l0 44 -45 0 c-34
0 -47 5 -55 19 -6 12 -10 106 -10 235 l0 216 55 0 55 0 0 50 0 50 -55 0 -55 0
0 90 0 90 -55 0 -55 0 0 -90z"/>
<path d="M18930 17370 l0 -90 -45 0 -45 0 0 -50 0 -50 45 0 45 0 0 -237 c0
-207 2 -243 18 -273 22 -44 53 -60 119 -60 75 0 83 5 83 56 l0 44 -45 0 c-34
0 -47 5 -55 19 -6 12 -10 106 -10 235 l0 216 55 0 55 0 0 50 0 50 -55 0 -55 0
0 90 0 90 -55 0 -55 0 0 -90z"/>
<path d="M25110 17370 l0 -90 -45 0 -45 0 0 -50 0 -50 45 0 45 0 0 -237 c0
-207 2 -243 18 -273 22 -44 53 -60 119 -60 75 0 83 5 83 56 l0 44 -45 0 c-34
0 -47 5 -55 19 -6 12 -10 106 -10 235 l0 216 55 0 55 0 0 50 0 50 -55 0 -55 0
0 90 0 90 -55 0 -55 0 0 -90z"/>
<path d="M31630 17370 l0 -90 -45 0 -45 0 0 -50 0 -50 45 0 45 0 0 -237 c0
-207 2 -243 18 -273 22 -44 53 -60 119 -60 75 0 83 5 83 56 l0 44 -45 0 c-34
0 -47 5 -55 19 -6 12 -10 106 -10 235 l0 216 55 0 55 0 0 50 0 50 -55 0 -55 0
0 90 0 90 -55 0 -55 0 0 -90z"/>
<path d="M38910 17370 l0 -90 -45 0 -45 0 0 -50 0 -50 45 0 45 0 0 -237 c0
-207 2 -243 18 -273 22 -44 53 -60 119 -60 75 0 83 5 83 56 l0 44 -45 0 c-34
0 -47 5 -55 19 -6 12 -10 106 -10 235 l0 216 55 0 55 0 0 50 0 50 -55 0 -55 0
0 90 0 90 -55 0 -55 0 0 -90z"/>
<path d="M3793 17270 c-60 -24 -107 -73 -122 -127 -19 -69 -17 -73 42 -73 53
0 53 0 63 37 13 54 60 83 136 83 102 0 148 -32 148 -102 0 -58 -14 -66 -138
-83 -143 -19 -182 -30 -228 -68 -45 -38 -64 -81 -64 -147 0 -93 57 -165 149
-190 81 -21 195 11 259 72 31 31 32 31 32 9 0 -12 13 -36 29 -52 25 -24 38
-29 78 -29 64 0 75 9 71 56 -3 35 -5 39 -29 36 -14 -2 -31 3 -37 10 -7 9 -12
95 -14 245 -3 265 -4 267 -93 313 -68 34 -207 39 -282 10z m265 -400 c-4 -80
-23 -112 -84 -147 -76 -43 -175 -39 -209 10 -17 25 -20 89 -5 118 16 30 59 47
149 59 45 6 92 15 104 20 46 19 50 15 45 -60z"/>
<path d="M5176 17270 c-161 -64 -238 -296 -165 -495 26 -70 70 -119 137 -152
49 -24 69 -28 138 -27 68 0 90 5 139 28 101 50 154 151 163 307 8 162 -37 260
-147 322 -72 41 -189 48 -265 17z m205 -101 c32 -16 46 -32 66 -75 23 -51 25
-65 21 -157 -3 -87 -8 -110 -32 -155 -40 -78 -115 -108 -205 -82 -72 20 -119
94 -128 198 -10 124 24 221 96 269 45 30 126 31 182 2z"/>
<path d="M5935 17275 c-16 -8 -47 -34 -67 -58 l-38 -42 0 53 0 52 -55 0 -55 0
0 -325 0 -325 55 0 55 0 0 188 c0 103 5 204 11 225 21 78 109 139 175 123 23
-6 24 -5 24 59 l0 65 -37 0 c-21 0 -51 -7 -68 -15z"/>
<path d="M6263 17270 c-60 -24 -107 -73 -122 -127 -19 -69 -17 -73 42 -73 53
0 53 0 63 37 13 54 60 83 136 83 102 0 148 -32 148 -102 0 -58 -14 -66 -138
-83 -143 -19 -182 -30 -228 -68 -45 -38 -64 -81 -64 -147 0 -93 57 -165 149
-190 81 -21 195 11 259 72 31 31 32 31 32 9 0 -12 13 -36 29 -52 25 -24 38
-29 78 -29 64 0 75 9 71 56 -3 35 -5 39 -29 36 -14 -2 -31 3 -37 10 -7 9 -12
95 -14 245 -3 265 -4 267 -93 313 -68 34 -207 39 -282 10z m265 -400 c-4 -80
-23 -112 -84 -147 -76 -43 -175 -39 -209 10 -17 25 -20 89 -5 118 16 30 59 47
149 59 45 6 92 15 104 20 46 19 50 15 45 -60z"/>
<path d="M7306 17270 c-161 -64 -238 -296 -165 -495 26 -70 70 -119 137 -152
49 -24 69 -28 138 -27 68 0 90 5 139 28 101 50 154 151 163 307 8 162 -37 260
-147 322 -72 41 -189 48 -265 17z m205 -101 c32 -16 46 -32 66 -75 23 -51 25
-65 21 -157 -3 -87 -8 -110 -32 -155 -40 -78 -115 -108 -205 -82 -72 20 -119
94 -128 198 -10 124 24 221 96 269 45 30 126 31 182 2z"/>
<path d="M8065 17275 c-16 -8 -47 -34 -67 -58 l-38 -42 0 53 0 52 -55 0 -55 0
0 -325 0 -325 55 0 55 0 0 188 c0 103 5 204 11 225 21 78 109 139 175 123 23
-6 24 -5 24 59 l0 65 -37 0 c-21 0 -51 -7 -68 -15z"/>
<path d="M8676 17270 c-161 -64 -238 -296 -165 -495 26 -70 70 -119 137 -152
49 -24 69 -28 138 -27 68 0 90 5 139 28 101 50 154 151 163 307 8 162 -37 260
-147 322 -72 41 -189 48 -265 17z m205 -101 c32 -16 46 -32 66 -75 23 -51 25
-65 21 -157 -3 -87 -8 -110 -32 -155 -40 -78 -115 -108 -205 -82 -72 20 -119
94 -128 198 -10 124 24 221 96 269 45 30 126 31 182 2z"/>
<path d="M10404 17270 c-68 -27 -134 -98 -164 -176 -19 -46 -24 -79 -24 -154
-1 -113 18 -178 70 -239 56 -65 113 -93 199 -99 156 -10 267 63 310 206 6 21
4 22 -49 22 -53 0 -56 -1 -72 -36 -28 -59 -76 -88 -153 -92 -57 -3 -71 0 -101
20 -41 28 -75 87 -84 146 l-6 42 241 0 242 0 -6 73 c-13 145 -53 220 -148 272
-72 39 -179 45 -255 15z m213 -106 c32 -24 62 -79 70 -128 l6 -36 -178 0 -178
0 6 41 c7 50 41 101 87 129 46 27 146 24 187 -6z"/>
<path d="M12250 17270 c-25 -12 -57 -33 -72 -47 l-28 -27 0 42 0 42 -55 0 -55
0 0 -325 0 -325 55 0 55 0 0 198 c0 108 5 214 9 236 10 41 50 89 93 112 33 17
108 18 143 2 53 -24 59 -52 63 -310 l4 -238 55 0 54 0 -3 263 c-3 257 -3 263
-28 305 -36 63 -77 85 -169 89 -62 3 -85 0 -121 -17z"/>
<path d="M12853 17270 c-60 -24 -107 -73 -122 -127 -19 -69 -17 -73 42 -73 53
0 53 0 63 37 13 54 60 83 136 83 102 0 148 -32 148 -102 0 -58 -14 -66 -138
-83 -143 -19 -182 -30 -228 -68 -45 -38 -64 -81 -64 -147 0 -93 57 -165 149
-190 81 -21 195 11 259 72 31 31 32 31 32 9 0 -12 13 -36 29 -52 25 -24 38
-29 78 -29 64 0 75 9 71 56 -3 35 -5 39 -29 36 -14 -2 -31 3 -37 10 -7 9 -12
95 -14 245 -3 265 -4 267 -93 313 -68 34 -207 39 -282 10z m265 -400 c-4 -80
-23 -112 -84 -147 -76 -43 -175 -39 -209 10 -17 25 -20 89 -5 118 16 30 59 47
149 59 45 6 92 15 104 20 46 19 50 15 45 -60z"/>
<path d="M14078 17276 c-93 -36 -138 -98 -138 -189 0 -51 4 -61 36 -96 37 -42
73 -57 239 -101 111 -29 125 -40 125 -95 0 -51 -26 -78 -94 -96 -105 -28 -216
28 -216 111 0 18 -6 20 -55 20 -53 0 -55 -1 -55 -27 0 -41 43 -125 78 -155 44
-37 95 -52 182 -52 104 -1 165 18 216 70 74 74 82 194 17 256 -33 31 -79 50
-192 78 -128 32 -170 59 -171 108 0 13 13 37 29 53 26 26 36 29 91 29 85 0
127 -20 148 -70 17 -40 17 -41 67 -38 49 3 50 4 47 33 -6 51 -44 107 -95 139
-43 26 -59 30 -135 33 -57 2 -100 -2 -124 -11z"/>
<path d="M14734 17270 c-68 -27 -134 -98 -164 -176 -19 -46 -24 -79 -24 -154
-1 -113 18 -178 70 -239 56 -65 113 -93 199 -99 156 -10 267 63 310 206 6 21
4 22 -49 22 -53 0 -56 -1 -72 -36 -28 -59 -76 -88 -153 -92 -57 -3 -71 0 -101
20 -41 28 -75 87 -84 146 l-6 42 241 0 242 0 -6 73 c-13 145 -53 220 -148 272
-72 39 -179 45 -255 15z m213 -106 c32 -24 62 -79 70 -128 l6 -36 -178 0 -178
0 6 41 c7 50 41 101 87 129 46 27 146 24 187 -6z"/>
<path d="M15764 17270 c-68 -27 -134 -98 -164 -176 -19 -46 -24 -79 -24 -154
-1 -113 18 -178 70 -239 56 -65 113 -93 199 -99 156 -10 267 63 310 206 6 21
4 22 -49 22 -53 0 -56 -1 -72 -36 -28 -59 -76 -88 -153 -92 -57 -3 -71 0 -101
20 -41 28 -75 87 -84 146 l-6 42 241 0 242 0 -6 73 c-13 145 -53 220 -148 272
-72 39 -179 45 -255 15z m213 -106 c32 -24 62 -79 70 -128 l6 -36 -178 0 -178
0 6 41 c7 50 41 101 87 129 46 27 146 24 187 -6z"/>
<path d="M17676 17270 c-161 -64 -238 -296 -165 -495 26 -70 70 -119 137 -152
49 -24 69 -28 138 -27 68 0 90 5 139 28 101 50 154 151 163 307 8 162 -37 260
-147 322 -72 41 -189 48 -265 17z m205 -101 c32 -16 46 -32 66 -75 23 -51 25
-65 21 -157 -3 -87 -8 -110 -32 -155 -40 -78 -115 -108 -205 -82 -72 20 -119
94 -128 198 -10 124 24 221 96 269 45 30 126 31 182 2z"/>
<path d="M18430 17270 c-25 -12 -57 -33 -72 -47 l-28 -27 0 42 0 42 -55 0 -55
0 0 -325 0 -325 55 0 55 0 0 198 c0 108 5 214 9 236 10 41 50 89 93 112 33 17
108 18 143 2 53 -24 59 -52 63 -310 l4 -238 55 0 54 0 -3 263 c-3 257 -3 263
-28 305 -36 63 -77 85 -169 89 -62 3 -85 0 -121 -17z"/>
<path d="M19465 17275 c-16 -8 -47 -34 -67 -58 l-38 -42 0 53 0 52 -55 0 -55
0 0 -325 0 -325 55 0 55 0 0 188 c0 103 5 204 11 225 21 78 109 139 175 123
23 -6 24 -5 24 59 l0 65 -37 0 c-21 0 -51 -7 -68 -15z"/>
<path d="M19806 17270 c-161 -64 -238 -296 -165 -495 26 -70 70 -119 137 -152
49 -24 69 -28 138 -27 68 0 90 5 139 28 101 50 154 151 163 307 8 162 -37 260
-147 322 -72 41 -189 48 -265 17z m205 -101 c32 -16 46 -32 66 -75 23 -51 25
-65 21 -157 -3 -87 -8 -110 -32 -155 -40 -78 -115 -108 -205 -82 -72 20 -119
94 -128 198 -10 124 24 221 96 269 45 30 126 31 182 2z"/>
<path d="M20774 17270 c-68 -27 -134 -98 -164 -176 -19 -46 -24 -79 -24 -154
-1 -113 18 -178 70 -239 56 -65 113 -93 199 -99 156 -10 267 63 310 206 6 21
4 22 -49 22 -53 0 -56 -1 -72 -36 -28 -59 -76 -88 -153 -92 -57 -3 -71 0 -101
20 -41 28 -75 87 -84 146 l-6 42 241 0 242 0 -6 73 c-13 145 -53 220 -148 272
-72 39 -179 45 -255 15z m213 -106 c32 -24 62 -79 70 -128 l6 -36 -178 0 -178
0 6 41 c7 50 41 101 87 129 46 27 146 24 187 -6z"/>
<path d="M22494 17270 c-68 -27 -134 -98 -164 -176 -19 -46 -24 -79 -24 -154
-1 -113 18 -178 70 -239 56 -65 113 -93 199 -99 156 -10 267 63 310 206 6 21
4 22 -49 22 -53 0 -56 -1 -72 -36 -28 -59 -76 -88 -153 -92 -57 -3 -71 0 -101
20 -41 28 -75 87 -84 146 l-6 42 241 0 242 0 -6 73 c-13 145 -53 220 -148 272
-72 39 -179 45 -255 15z m213 -106 c32 -24 62 -79 70 -128 l6 -36 -178 0 -178
0 6 41 c7 50 41 101 87 129 46 27 146 24 187 -6z"/>
<path d="M24588 17276 c-93 -36 -138 -98 -138 -189 0 -51 4 -61 36 -96 37 -42
73 -57 239 -101 111 -29 125 -40 125 -95 0 -51 -26 -78 -94 -96 -105 -28 -216
28 -216 111 0 18 -6 20 -55 20 -53 0 -55 -1 -55 -27 0 -41 43 -125 78 -155 44
-37 95 -52 182 -52 104 -1 165 18 216 70 74 74 82 194 17 256 -33 31 -79 50
-192 78 -128 32 -170 59 -171 108 0 13 13 37 29 53 26 26 36 29 91 29 85 0
127 -20 148 -70 17 -40 17 -41 67 -38 49 3 50 4 47 33 -6 51 -44 107 -95 139
-43 26 -59 30 -135 33 -57 2 -100 -2 -124 -11z"/>
<path d="M25584 17270 c-68 -27 -134 -98 -164 -176 -19 -46 -24 -79 -24 -154
-1 -113 18 -178 70 -239 56 -65 113 -93 199 -99 156 -10 267 63 310 206 6 21
4 22 -49 22 -53 0 -56 -1 -72 -36 -28 -59 -76 -88 -153 -92 -57 -3 -71 0 -101
20 -41 28 -75 87 -84 146 l-6 42 241 0 242 0 -6 73 c-13 145 -53 220 -148 272
-72 39 -179 45 -255 15z m213 -106 c32 -24 62 -79 70 -128 l6 -36 -178 0 -178
0 6 41 c7 50 41 101 87 129 46 27 146 24 187 -6z"/>
<path d="M26335 17276 c-17 -7 -47 -29 -68 -48 l-37 -35 0 43 0 44 -55 0 -55
0 0 -325 0 -325 54 0 54 0 4 223 c3 248 8 268 78 314 39 27 114 31 147 8 36
-25 43 -77 43 -317 l0 -228 54 0 54 0 4 228 c3 215 4 229 26 263 27 44 75 69
132 69 102 0 110 -25 110 -325 l0 -235 55 0 55 0 0 255 c0 278 -4 302 -57 358
-52 54 -166 63 -252 21 -28 -15 -59 -37 -67 -50 l-16 -23 -31 36 c-17 20 -46
42 -64 49 -41 18 -129 17 -168 0z"/>
<path d="M27283 17270 c-60 -24 -107 -73 -122 -127 -19 -69 -17 -73 42 -73 53
0 53 0 63 37 13 54 60 83 136 83 102 0 148 -32 148 -102 0 -58 -14 -66 -138
-83 -143 -19 -182 -30 -228 -68 -45 -38 -64 -81 -64 -147 0 -93 57 -165 149
-190 81 -21 195 11 259 72 31 31 32 31 32 9 0 -12 13 -36 29 -52 25 -24 38
-29 78 -29 64 0 75 9 71 56 -3 35 -5 39 -29 36 -14 -2 -31 3 -37 10 -7 9 -12
95 -14 245 -3 265 -4 267 -93 313 -68 34 -207 39 -282 10z m265 -400 c-4 -80
-23 -112 -84 -147 -76 -43 -175 -39 -209 10 -17 25 -20 89 -5 118 16 30 59 47
149 59 45 6 92 15 104 20 46 19 50 15 45 -60z"/>
<path d="M27958 17276 c-93 -36 -138 -98 -138 -189 0 -51 4 -61 36 -96 37 -42
73 -57 239 -101 111 -29 125 -40 125 -95 0 -51 -26 -78 -94 -96 -105 -28 -216
28 -216 111 0 18 -6 20 -55 20 -53 0 -55 -1 -55 -27 0 -41 43 -125 78 -155 44
-37 95 -52 182 -52 104 -1 165 18 216 70 74 74 82 194 17 256 -33 31 -79 50
-192 78 -128 32 -170 59 -171 108 0 13 13 37 29 53 26 26 36 29 91 29 85 0
127 -20 148 -70 17 -40 17 -41 67 -38 49 3 50 4 47 33 -6 51 -44 107 -95 139
-43 26 -59 30 -135 33 -57 2 -100 -2 -124 -11z"/>
<path d="M28954 17270 c-68 -27 -134 -98 -164 -176 -19 -46 -24 -79 -24 -154
-1 -113 18 -178 70 -239 56 -65 113 -93 199 -99 156 -10 267 63 310 206 6 21
4 22 -49 22 -53 0 -56 -1 -72 -36 -28 -59 -76 -88 -153 -92 -57 -3 -71 0 -101
20 -41 28 -75 87 -84 146 l-6 42 241 0 242 0 -6 73 c-13 145 -53 220 -148 272
-72 39 -179 45 -255 15z m213 -106 c32 -24 62 -79 70 -128 l6 -36 -178 0 -178
0 6 41 c7 50 41 101 87 129 46 27 146 24 187 -6z"/>
<path d="M31084 17270 c-68 -27 -134 -98 -164 -176 -19 -46 -24 -79 -24 -154
-1 -113 18 -178 70 -239 56 -65 113 -93 199 -99 156 -10 267 63 310 206 6 21
4 22 -49 22 -53 0 -56 -1 -72 -36 -28 -59 -76 -88 -153 -92 -57 -3 -71 0 -101
20 -41 28 -75 87 -84 146 l-6 42 241 0 242 0 -6 73 c-13 145 -53 220 -148 272
-72 39 -179 45 -255 15z m213 -106 c32 -24 62 -79 70 -128 l6 -36 -178 0 -178
0 6 41 c7 50 41 101 87 129 46 27 146 24 187 -6z"/>
<path d="M32175 17275 c-16 -8 -47 -34 -67 -58 l-38 -42 0 53 0 52 -55 0 -55
0 0 -325 0 -325 55 0 55 0 0 188 c0 103 5 204 11 225 21 78 109 139 175 123
23 -6 24 -5 24 59 l0 65 -37 0 c-21 0 -51 -7 -68 -15z"/>
<path d="M32516 17270 c-161 -64 -238 -296 -165 -495 26 -70 70 -119 137 -152
49 -24 69 -28 138 -27 68 0 90 5 139 28 101 50 154 151 163 307 8 162 -37 260
-147 322 -72 41 -189 48 -265 17z m205 -101 c32 -16 46 -32 66 -75 23 -51 25
-65 21 -157 -3 -87 -8 -110 -32 -155 -40 -78 -115 -108 -205 -82 -72 20 -119
94 -128 198 -10 124 24 221 96 269 45 30 126 31 182 2z"/>
<path d="M33270 17270 c-25 -12 -57 -33 -72 -47 l-28 -27 0 42 0 42 -55 0 -55
0 0 -325 0 -325 55 0 55 0 0 198 c0 108 5 214 9 236 10 41 50 89 93 112 33 17
108 18 143 2 53 -24 59 -52 63 -310 l4 -238 55 0 54 0 -3 263 c-3 257 -3 263
-28 305 -36 63 -77 85 -169 89 -62 3 -85 0 -121 -17z"/>
<path d="M34155 17266 c-99 -47 -155 -131 -175 -265 -20 -129 9 -239 86 -321
53 -57 110 -80 195 -80 138 0 240 82 264 213 l7 37 -54 0 c-55 0 -55 0 -67
-37 -23 -74 -73 -113 -147 -113 -66 0 -111 29 -143 94 -20 40 -24 63 -24 136
1 108 21 175 68 220 30 29 43 34 93 38 42 3 68 -1 90 -12 31 -16 72 -79 72
-111 0 -12 12 -15 55 -15 63 0 65 4 40 86 -19 64 -75 120 -140 140 -74 22
-161 18 -220 -10z"/>
<path d="M34763 17270 c-60 -24 -107 -73 -122 -127 -19 -69 -17 -73 42 -73 53
0 53 0 63 37 13 54 60 83 136 83 102 0 148 -32 148 -102 0 -58 -14 -66 -138
-83 -143 -19 -182 -30 -228 -68 -45 -38 -64 -81 -64 -147 0 -93 57 -165 149
-190 81 -21 195 11 259 72 31 31 32 31 32 9 0 -12 13 -36 29 -52 25 -24 38
-29 78 -29 64 0 75 9 71 56 -3 35 -5 39 -29 36 -14 -2 -31 3 -37 10 -7 9 -12
95 -14 245 -3 265 -4 267 -93 313 -68 34 -207 39 -282 10z m265 -400 c-4 -80
-23 -112 -84 -147 -76 -43 -175 -39 -209 10 -17 25 -20 89 -5 118 16 30 59 47
149 59 45 6 92 15 104 20 46 19 50 15 45 -60z"/>
<path d="M36504 17270 c-68 -27 -134 -98 -164 -176 -19 -46 -24 -79 -24 -154
-1 -113 18 -178 70 -239 56 -65 113 -93 199 -99 156 -10 267 63 310 206 6 21
4 22 -49 22 -53 0 -56 -1 -72 -36 -28 -59 -76 -88 -153 -92 -57 -3 -71 0 -101
20 -41 28 -75 87 -84 146 l-6 42 241 0 242 0 -6 73 c-13 145 -53 220 -148 272
-72 39 -179 45 -255 15z m213 -106 c32 -24 62 -79 70 -128 l6 -36 -178 0 -178
0 6 41 c7 50 41 101 87 129 46 27 146 24 187 -6z"/>
<path d="M38356 17270 c-161 -64 -238 -296 -165 -495 26 -70 70 -119 137 -152
49 -24 69 -28 138 -27 68 0 90 5 139 28 101 50 154 151 163 307 8 162 -37 260
-147 322 -72 41 -189 48 -265 17z m205 -101 c32 -16 46 -32 66 -75 23 -51 25
-65 21 -157 -3 -87 -8 -110 -32 -155 -40 -78 -115 -108 -205 -82 -72 20 -119
94 -128 198 -10 124 24 221 96 269 45 30 126 31 182 2z"/>
<path d="M39394 17270 c-68 -27 -134 -98 -164 -176 -19 -46 -24 -79 -24 -154
-1 -113 18 -178 70 -239 56 -65 113 -93 199 -99 156 -10 267 63 310 206 6 21
4 22 -49 22 -53 0 -56 -1 -72 -36 -28 -59 -76 -88 -153 -92 -57 -3 -71 0 -101
20 -41 28 -75 87 -84 146 l-6 42 241 0 242 0 -6 73 c-13 145 -53 220 -148 272
-72 39 -179 45 -255 15z m213 -106 c32 -24 62 -79 70 -128 l6 -36 -178 0 -178
0 6 41 c7 50 41 101 87 129 46 27 146 24 187 -6z"/>
<path d="M40140 17270 c-25 -12 -57 -33 -72 -47 l-28 -27 0 42 0 42 -55 0 -55
0 0 -325 0 -325 55 0 55 0 0 198 c0 108 5 214 9 236 10 41 50 89 93 112 33 17
108 18 143 2 53 -24 59 -52 63 -310 l4 -238 55 0 54 0 -3 263 c-3 257 -3 263
-28 305 -36 63 -77 85 -169 89 -62 3 -85 0 -121 -17z"/>
<path d="M40745 17266 c-99 -47 -155 -131 -175 -265 -20 -129 9 -239 86 -321
53 -57 110 -80 195 -80 138 0 240 82 264 213 l7 37 -54 0 c-55 0 -55 0 -67
-37 -23 -74 -73 -113 -147 -113 -66 0 -111 29 -143 94 -20 40 -24 63 -24 136
1 108 21 175 68 220 30 29 43 34 93 38 42 3 68 -1 90 -12 31 -16 72 -79 72
-111 0 -12 12 -15 55 -15 63 0 65 4 40 86 -19 64 -75 120 -140 140 -74 22
-161 18 -220 -10z"/>
<path d="M41633 17270 c-60 -24 -107 -73 -122 -127 -19 -69 -17 -73 42 -73 53
0 53 0 63 37 13 54 60 83 136 83 102 0 148 -32 148 -102 0 -58 -14 -66 -138
-83 -143 -19 -182 -30 -228 -68 -45 -38 -64 -81 -64 -147 0 -93 57 -165 149
-190 81 -21 195 11 259 72 31 31 32 31 32 9 0 -12 13 -36 29 -52 25 -24 38
-29 78 -29 64 0 75 9 71 56 -3 35 -5 39 -29 36 -14 -2 -31 3 -37 10 -7 9 -12
95 -14 245 -3 265 -4 267 -93 313 -68 34 -207 39 -282 10z m265 -400 c-4 -80
-23 -112 -84 -147 -76 -43 -175 -39 -209 10 -17 25 -20 89 -5 118 16 30 59 47
149 59 45 6 92 15 104 20 46 19 50 15 45 -60z"/>
<path d="M8260 16955 l0 -325 55 0 55 0 0 325 0 325 -55 0 -55 0 0 -325z"/>
<path d="M13690 16955 l0 -325 55 0 55 0 0 325 0 325 -55 0 -55 0 0 -325z"/>
<path d="M24200 16955 l0 -325 55 0 55 0 0 325 0 325 -55 0 -55 0 0 -325z"/>
<path d="M33740 16955 l0 -325 55 0 55 0 0 325 0 325 -55 0 -55 0 0 -325z"/>
<path d="M41230 16955 l0 -325 55 0 55 0 0 325 0 325 -55 0 -55 0 0 -325z"/>
</g>
</svg>
